# xmcd
#
# Track frame offsets:
# 150
# 12525
# 26805
# 34172
# 45050
# 58225
# 69390
# 77162
# 81170
# 84167
# 87982
# 90342
# 95225
# 101015
# 107202
# 113837
# 121035
# 125192
# 133587
# 143087
# 149340
# 155747
# 160407
# 169980
# 178900
# 186050
# 198000
# 207932
# 217027
# 230002
# 234520
# 244590
# 248167
# 252867
# 259095
# 265997
#
# Disc length: 3701 seconds
#
#
# Revision: 0
# Processed by: cddbd v1.5.2PL0 Copyright (c) Steve Scherf et al.
# Submitted via: FreeRIP 2.96 
#
DISCID=030e7324
DTITLE=Erik Satie - Piano Works (Selection)
DYEAR=1989
DGENRE=Classical
TTITLE0=Véritables Préludes Flasques
TTITLE1=1ère Gnossienne. Lent
TTITLE2=2nde Gnossienne. Avec étonnement
TTITLE3=3iéme Gnossienne. Lent
TTITLE4=4iéme Gnossienne. Lent
TTITLE5=5iéme Gnossienne. Modere
TTITLE6=6ieme Gnossienne. Avec conviction et avec une tristesse rigoureuse
TTITLE7=Menu propos Enfantins (1913) - Chant guerrier du roi des haricots. Mouvt de Marche
TTITLE8=Menu propos Enfantins (1913) - Ce que dit la petite princess des Tulipes. Très lent
TTITLE9=Menu propos Enfantins (1913) - Valse du Chocolat aux amandes. Valse
TTITLE10=Enfantillages pittoresque (1913) - Petit prélude a la journée. Modéré
TTITLE11=Enfantillages pittoresque (1913) -  Berceuse. Lent
TTITLE12=Enfantillages pittoresque (1913) - Marche du grand escalier. (Without tempo indictation)
TTITLE13=Croquis et agaceries d'un gros Bonhomme en bois - Tyrolienne turque
TTITLE14=Croquis et agaceries d'un gros Bonhomme en bois - Danse maigre - A la manière des ces Messieurs
TTITLE15=Croquis et agaceries d'un gros Bonhomme en bois - Españana
TTITLE16=Chapitres tournés en tous sens (1913) - Celle qui parle trop
TTITLE17=Chapitres tournés en tous sens (1913) - Le porteur de grosses pierres
TTITLE18=Chapitres tournés en tous sens (1913) - Regrets des enfermés - Jonas et Latude
TTITLE19=Descriptions automatique (1913) - Sur un vaisseau. Assez lent
TTITLE20=Descriptions automatique (1913) - Sur une lanterne. Lent
TTITLE21=Descriptions automatique (1913) - Sur un casque
TTITLE22=Embryons desséchés (1913)  - d'Holothurie
TTITLE23=Embryons desséchés (1913)  - d'Edriophthalma
TTITLE24=Embryons desséchés (1913)  - de Podophthalma
TTITLE25=1ére Gymnopédie. Lent et douloureux
TTITLE26=2éme Gymnopédie. Lent et triste
TTITLE27=3éme Gymnopédie. Lent et grave
TTITLE28=Passacaille (1906). Pas trop vif
TTITLE29=Six Pièce de la période 1906 - 1913 - Désespoir agreable (1908). Calme
TTITLE30=Six Pièce de la période 1906 - 1913 - Effronterie
TTITLE31=Six Pièce de la période 1906 - 1913 - Poésie (about 1913). Andante (Revised by Robert Caby)
TTITLE32=Six Pièce de la période 1906 - 1913 - Pr´lude canin (about 1910) Lent  (Revised by Robert Caby)
TTITLE33=Six Pièce de la période 1906 - 1913 - Profondeux. Avec calme
TTITLE34=Six Pièce de la période 1906 - 1913 - Songe creux. Très calme (Revised by Robert Caby)
TTITLE35=Rag-Time "Parade" from the "ballet realiste" Parade (1917 - arranged by Hans Ourdine)
EXTD=Klara Körmendi
EXTT0=
EXTT1=
EXTT2=
EXTT3=
EXTT4=
EXTT5=
EXTT6=
EXTT7=
EXTT8=
EXTT9=
EXTT10=
EXTT11=
EXTT12=
EXTT13=
EXTT14=
EXTT15=
EXTT16=
EXTT17=
EXTT18=
EXTT19=
EXTT20=
EXTT21=
EXTT22=
EXTT23=
EXTT24=
EXTT25=
EXTT26=
EXTT27=
EXTT28=
EXTT29=
EXTT30=
EXTT31=
EXTT32=
EXTT33=
EXTT34=
EXTT35=
PLAYORDER=
